<svg xmlns="http://www.w3.org/2000/svg" xmlns:svg="http://www.w3.org/2000/svg" xmlns:xlink="http://www.w3.org/1999/xlink" id="svg2" width="450" height="140" version="1.1"><metadata id="metadata49"/><defs id="defs4"><filter id="shadow" width="200%" height="200%" x="0" y="0"><feOffset id="feOffset7" dx="3" dy="3" in="SourceGraphic" result="offOut"/><feColorMatrix id="feColorMatrix9" in="offOut" result="matrixOut" type="matrix" values="0.2 0 0 0 0 0 0.2 0 0 0 0 0 0.2 0 0 0 0 0 1 0"/><feGaussianBlur id="feGaussianBlur11" in="matrixOut" result="blurOut" stdDeviation="2"/><feBlend id="feBlend13" in="SourceGraphic" in2="blurOut" mode="normal"/></filter><filter id="shadow-1" width="2" height="2" x="0" y="0" color-interpolation-filters="sRGB"><feOffset id="feOffset7-7" dx="3" dy="3" in="SourceGraphic" result="offOut"/><feColorMatrix id="feColorMatrix9-4" in="offOut" result="matrixOut" type="matrix" values="0.2 0 0 0 0 0 0.2 0 0 0 0 0 0.2 0 0 0 0 0 1 0"/><feGaussianBlur id="feGaussianBlur11-0" in="matrixOut" result="blurOut" stdDeviation="2"/><feBlend id="feBlend13-9" in="SourceGraphic" in2="blurOut" mode="normal"/></filter><filter id="shadow-2" width="2" height="2" x="0" y="0" color-interpolation-filters="sRGB"><feOffset id="feOffset7-4" dx="3" dy="3" in="SourceGraphic" result="offOut"/><feColorMatrix id="feColorMatrix9-5" in="offOut" result="matrixOut" type="matrix" values="0.2 0 0 0 0 0 0.2 0 0 0 0 0 0.2 0 0 0 0 0 1 0"/><feGaussianBlur id="feGaussianBlur11-5" in="matrixOut" result="blurOut" stdDeviation="2"/><feBlend id="feBlend13-1" in="SourceGraphic" in2="blurOut" mode="normal"/></filter><filter id="shadow-5" width="2" height="2" x="0" y="0" color-interpolation-filters="sRGB"><feOffset id="feOffset7-2" dx="3" dy="3" in="SourceGraphic" result="offOut"/><feColorMatrix id="feColorMatrix9-7" in="offOut" result="matrixOut" type="matrix" values="0.2 0 0 0 0 0 0.2 0 0 0 0 0 0.2 0 0 0 0 0 1 0"/><feGaussianBlur id="feGaussianBlur11-6" in="matrixOut" result="blurOut" stdDeviation="2"/><feBlend id="feBlend13-14" in="SourceGraphic" in2="blurOut" mode="normal"/></filter><filter id="shadow-5-1" width="2" height="2" x="0" y="0" color-interpolation-filters="sRGB"><feOffset id="feOffset7-2-7" dx="3" dy="3" in="SourceGraphic" result="offOut"/><feColorMatrix id="feColorMatrix9-7-4" in="offOut" result="matrixOut" type="matrix" values="0.2 0 0 0 0 0 0.2 0 0 0 0 0 0.2 0 0 0 0 0 1 0"/><feGaussianBlur id="feGaussianBlur11-6-0" in="matrixOut" result="blurOut" stdDeviation="2"/><feBlend id="feBlend13-14-9" in="SourceGraphic" in2="blurOut" mode="normal"/></filter></defs><rect id="rect15" width="72" height="24" x="11.045" y="12" rx="2" ry="2" transform="matrix(0.78254381,0,0,1.0023337,2.3446129,-0.02683802)" style="fill:#f0f8ff;stroke:gray;stroke-width:1;filter:url(#shadow)"/><text id="text17" x="17.797" y="28" style="font-size:12px;fill:#000;font-family:sans-serif"><a id="a19" xlink:href="#decimal">decimal</a></text><rect id="rect21" width="47" height="24" x="81.407" y="9" rx="2" ry="2" style="fill:#f0f8ff;stroke:gray;stroke-width:1;filter:url(#shadow)"/><text id="text23" x="85.407" y="25" style="font-size:12px;fill:#000;font-family:sans-serif"><a id="a25" xlink:href="#integer">integer</a></text><rect id="rect27" width="76" height="24" x="156" y="9" rx="2" ry="2" transform="matrix(0.66114489,0,0,1.0037821,39.927066,-0.49076172)" style="fill:#f0f8ff;stroke:gray;stroke-width:1;filter:url(#shadow)"/><text id="text29" x="147.158" y="24.541" style="font-size:12px;fill:#000;font-family:sans-serif"><a id="a31" xlink:href="#boolean">boolean</a></text><rect id="rect33" width="93" height="24" x="244" y="12" rx="2" ry="2" transform="matrix(0.55987362,0,0,1.0050989,72.409995,-2.35179)" style="fill:#f0f8ff;stroke:gray;stroke-width:1;filter:url(#shadow)"/><text id="text35" x="213.144" y="25.707" style="font-size:12px;fill:#000;font-family:sans-serif"><a id="a37" xlink:href="#instant">instant</a></text><rect id="rect39" width="75" height="24" x="14.82" y="44.993" rx="2" ry="2" transform="matrix(0.49472344,0,0,1.0060107,265.09137,-31.91293)" style="fill:#f0f8ff;stroke:gray;stroke-width:1;filter:url(#shadow)"/><text id="text41" x="276.571" y="29.347" style="font-size:12px;fill:#000;font-family:sans-serif"><a id="a43" xlink:href="#date">date</a></text><rect id="rect45" width="75" height="24" x="128" y="56" rx="2" ry="2" transform="matrix(1.5824802,0,0,1.6018977,-62.336991,-42.244045)" style="fill:#f0f8ff;stroke:gray;stroke-width:1;filter:url(#shadow)"/><text id="text47" x="173.436" y="62.716" style="font-size:12px;font-weight:700;fill:#000;font-family:Sans;-inkscape-font-specification:Sans Bold;font-style:normal;font-stretch:normal;font-variant:normal;text-anchor:start;text-align:start;writing-mode:lr;line-height:125%">Element</text><text style="font-size:10;text-anchor:left;font-family:sans-serif" id="text49" x="144" y="80" fill="#000"><a id="a51" xlink:href="extensibility.html"><title id="title53">Extensions - as described for all elements: additional information that is not part of the basic definition of the resource / type</title> extension</a> : <a id="a55" xlink:href="extensibility.html">Extension</a> 0..*</text><line style="stroke:#696969;stroke-width:1.27877831" id="line57" x1="140.74" x2="258.48" y1="67.676" y2="67.676"/><rect id="rect49" width="140" height="24" x="222.797" y="44.993" rx="2" ry="2" transform="matrix(0.60254866,0,0,1.0045307,-129.40961,1.1743083)" style="fill:#f0f8ff;stroke:gray;stroke-width:1;filter:url(#shadow)"/><text id="text51" x="8.947" y="62.369" style="font-size:12px;fill:#000;font-family:sans-serif"><a id="a53" xlink:href="#base64Binary">base64Binary</a></text><rect id="rect55" width="61" height="24" x="60.504" y="79.527" rx="2" ry="2" transform="matrix(0.71413874,0,0,1.0031349,30.30445,7.2246762)" style="fill:#f0f8ff;stroke:gray;stroke-width:1;filter:url(#shadow)"/><text id="text57" x="80.8" y="102.082" style="font-size:12px;fill:#000;font-family:sans-serif"><a id="a59" xlink:href="#string">string</a></text><rect id="rect61" width="61" height="24" x="107.151" y="109.338" rx="2" ry="2" transform="matrix(0.56148618,0,0,1.0050705,104.37309,-14.51013)" style="fill:#f0f8ff;stroke:gray;stroke-width:1;filter:url(#shadow)"/><text id="text63" x="168.661" y="111.38" style="font-size:12px;fill:#000;font-family:sans-serif"><a id="a65" xlink:href="#code">code</a></text><rect id="rect67" width="87" height="24" x="234.225" y="75.858" rx="2" ry="2" transform="matrix(0.74394568,0,0,1.0027812,149.80654,-62.895765)" style="fill:#f0f8ff;stroke:gray;stroke-width:1;filter:url(#shadow)"/><text id="text69" x="328.125" y="29.172" style="font-size:12px;fill:#000;font-family:sans-serif"><a id="a71" xlink:href="#dateTime">dateTime</a></text><line id="line73" x1="66.982" x2="138.521" y1="35.633" y2="54.138" style="stroke:navy;stroke-width:1.01041973"/><rect id="rect55-4" width="61" height="24" x="20.595" y="79.634" rx="2" ry="2" transform="matrix(0.47911023,0,0,1.006243,-0.66838281,12.310953)" style="fill:#f0f8ff;stroke:gray;stroke-width:1;filter:url(#shadow-1)"/><text id="text57-8" x="16.562" y="107.522" style="font-size:12px;fill:#000;font-family:sans-serif"><a id="a59-8" xlink:href="#id">id</a></text><rect id="rect61-7" width="61" height="24" x="247.158" y="106.235" rx="2" ry="2" transform="matrix(0.43598059,0,0,1.0068866,190.99995,-48.853392)" style="fill:#f0f8ff;stroke:gray;stroke-width:1;filter:url(#shadow-2)"/><text id="text63-1" x="302.925" y="74.109" style="font-size:12px;fill:#000;font-family:sans-serif"><a id="a65-1" xlink:href="#uri">uri</a></text><rect id="rect61-2" width="61" height="24" x="248.993" y="144.301" rx="2" ry="2" transform="matrix(0.44339271,0,0,1.0067729,228.1858,-54.008157)" style="fill:#f0f8ff;stroke:gray;stroke-width:1;filter:url(#shadow-5)"/><text id="text63-3" x="342.753" y="107.267" style="font-size:12px;fill:#000;font-family:sans-serif"><a id="a65-2" xlink:href="#oid">oid</a></text><rect id="rect61-2-4" width="61" height="24" x="132.501" y="122.287" rx="2" ry="2" transform="matrix(0.60654164,0,0,1.0044786,179.05255,-28.754)" style="fill:#f0f8ff;stroke:gray;stroke-width:1;filter:url(#shadow-5-1)"/><text id="text63-3-8" x="263.529" y="110.078" style="font-size:12px;fill:#000;font-family:sans-serif"><a id="a65-2-8" xlink:href="#uuid">uuid</a></text><path id="path3066" d="m 119.70255,188.7468 -10.27361,-17.00005 -10.273618,-17.00005 19.859278,-0.39718 19.85929,-0.39719 -9.58567,17.39723 z" transform="matrix(0.13552223,0.1478449,-0.13246159,0.1214211,140.6873,15.182625)" style="fill:#fff;fill-opacity:1;fill-rule:evenodd;stroke:navy;stroke-width:5.26760817;stroke-linecap:butt;stroke-linejoin:miter;stroke-miterlimit:4;stroke-opacity:1;stroke-dasharray:none"/><line id="line73-1" x1="104.392" x2="144.186" y1="32.553" y2="46.373" style="stroke:navy;stroke-width:1;stroke-miterlimit:4;stroke-dasharray:none"/><line id="line73-7" x1="164.576" x2="164.262" y1="32.257" y2="47.127" style="stroke:navy;stroke-width:1;stroke-miterlimit:4;stroke-dasharray:none"/><line id="line73-4" x1="218.027" x2="190.613" y1="35.676" y2="46.459" style="stroke:navy;stroke-width:1;stroke-miterlimit:4;stroke-dasharray:none"/><line id="line73-0" x1="259.426" x2="280.979" y1="47.796" y2="37.272" style="stroke:navy;stroke-width:1;stroke-miterlimit:4;stroke-dasharray:none;marker-start:none"/><line id="line73-9" x1="260.483" x2="324.607" y1="54.953" y2="39.508" style="stroke:navy;stroke-width:1;stroke-miterlimit:4;stroke-dasharray:none"/><line id="line73-48" x1="260.423" x2="298.153" y1="67.755" y2="67.946" style="stroke:navy;stroke-width:1;stroke-miterlimit:4;stroke-dasharray:none"/><line id="line73-8" x1="325.36" x2="341.41" y1="81.107" y2="90.544" style="stroke:navy;stroke-width:1;stroke-miterlimit:4;stroke-dasharray:none"/><line id="line73-2" x1="294.784" x2="301.329" y1="92.942" y2="82.998" style="stroke:navy;stroke-width:1;stroke-miterlimit:4;stroke-dasharray:none;marker-start:none;marker-end:none"/><line id="line73-45" x1="139.657" x2="115.154" y1="77.572" y2="88.423" style="stroke:navy;stroke-width:1;stroke-miterlimit:4;stroke-dasharray:none"/><line id="line73-5" x1="38.088" x2="71.995" y1="101.009" y2="93.978" style="stroke:navy;stroke-width:1;stroke-miterlimit:4;stroke-dasharray:none"/><line id="line73-17" x1="117.265" x2="164.479" y1="100.146" y2="104.676" style="stroke:navy;stroke-width:1;stroke-miterlimit:4;stroke-dasharray:none"/><line id="line73-11" x1="89.521" x2="137.96" y1="63.086" y2="64.913" style="stroke:navy;stroke-width:1;stroke-miterlimit:4;stroke-dasharray:none"/><path id="path3066-5" d="m 119.70255,188.7468 -10.27361,-17.00005 -10.273618,-17.00005 19.859278,-0.39718 19.85929,-0.39719 -9.58567,17.39723 z" transform="matrix(0.13552223,0.1478449,-0.13246159,0.1214211,140.47179,26.049867)" style="fill:#fff;fill-opacity:1;fill-rule:evenodd;stroke:navy;stroke-width:5.26760817;stroke-linecap:butt;stroke-linejoin:miter;stroke-miterlimit:4;stroke-opacity:1;stroke-dasharray:none"/><path id="path3066-2" d="m 119.70255,188.7468 -10.27361,-17.00005 -10.273618,-17.00005 19.859278,-0.39718 19.85929,-0.39719 -9.58567,17.39723 z" transform="matrix(0.12911467,0.15347244,-0.13750358,0.11568025,147.57546,7.5268889)" style="fill:#fff;fill-opacity:1;fill-rule:evenodd;stroke:navy;stroke-width:5.26760817;stroke-linecap:butt;stroke-linejoin:miter;stroke-miterlimit:4;stroke-opacity:1;stroke-dasharray:none"/><path id="path3066-7" d="m 119.70255,188.7468 -10.27361,-17.00005 -10.273618,-17.00005 19.859278,-0.39718 19.85929,-0.39719 -9.58567,17.39723 z" transform="matrix(0.20054978,0.00204302,-0.00183044,0.17968251,140.868,13.59548)" style="fill:#fff;fill-opacity:1;fill-rule:evenodd;stroke:navy;stroke-width:5.26760817;stroke-linecap:butt;stroke-linejoin:miter;stroke-miterlimit:4;stroke-opacity:1;stroke-dasharray:none"/><path id="path3066-6" d="m 119.70255,188.7468 -10.27361,-17.00005 -10.273618,-17.00005 19.859278,-0.39718 19.85929,-0.39719 -9.58567,17.39723 z" transform="matrix(0.11284808,0.16580018,-0.14854862,0.1011062,205.46498,7.5562206)" style="fill:#fff;fill-opacity:1;fill-rule:evenodd;stroke:navy;stroke-width:5.26760817;stroke-linecap:butt;stroke-linejoin:miter;stroke-miterlimit:4;stroke-opacity:1;stroke-dasharray:none"/><path id="path3066-1" d="m 119.70255,188.7468 -10.27361,-17.00005 -10.273618,-17.00005 19.859278,-0.39718 19.85929,-0.39719 -9.58567,17.39723 z" transform="matrix(0.09392798,0.17720589,-0.15876755,0.08415474,277.29246,11.415666)" style="fill:#fff;fill-opacity:1;fill-rule:evenodd;stroke:navy;stroke-width:5.26760817;stroke-linecap:butt;stroke-linejoin:miter;stroke-miterlimit:4;stroke-opacity:1;stroke-dasharray:none"/><path id="path3066-4" d="m 119.70255,188.7468 -10.27361,-17.00005 -10.273618,-17.00005 19.859278,-0.39718 19.85929,-0.39719 -9.58567,17.39723 z" transform="matrix(0.02918559,0.19842528,-0.17777906,0.02614882,291.24475,26.57827)" style="fill:#fff;fill-opacity:1;fill-rule:evenodd;stroke:navy;stroke-width:5.26760817;stroke-linecap:butt;stroke-linejoin:miter;stroke-miterlimit:4;stroke-opacity:1;stroke-dasharray:none"/><path id="path3066-23" d="m 119.70255,188.7468 -10.27361,-17.00005 -10.273618,-17.00005 19.859278,-0.39718 19.85929,-0.39719 -9.58567,17.39723 z" transform="matrix(-0.11474676,0.16449185,-0.14737643,-0.10280733,367.50648,80.885823)" style="fill:#fff;fill-opacity:1;fill-rule:evenodd;stroke:navy;stroke-width:5.26760817;stroke-linecap:butt;stroke-linejoin:miter;stroke-miterlimit:4;stroke-opacity:1;stroke-dasharray:none"/><path id="path3066-22" d="m 119.70255,188.7468 -10.27361,-17.00005 -10.273618,-17.00005 19.859278,-0.39718 19.85929,-0.39719 -9.58567,17.39723 z" transform="matrix(-0.16388601,-0.1156104,0.10358109,-0.14683363,267.43869,106.35587)" style="fill:#fff;fill-opacity:1;fill-rule:evenodd;stroke:navy;stroke-width:5.26760817;stroke-linecap:butt;stroke-linejoin:miter;stroke-miterlimit:4;stroke-opacity:1;stroke-dasharray:none"/><path id="path3066-22-1" d="m 119.70255,188.7468 -10.27361,-17.00005 -10.273618,-17.00005 19.859278,-0.39718 19.85929,-0.39719 -9.58567,17.39723 z" transform="matrix(0.18742589,-0.07138575,0.06395804,0.16792417,265.36096,67.226371)" style="fill:#fff;fill-opacity:1;fill-rule:evenodd;stroke:navy;stroke-width:5.26760817;stroke-linecap:butt;stroke-linejoin:miter;stroke-miterlimit:4;stroke-opacity:1;stroke-dasharray:none"/><path id="path3066-22-6" d="m 119.70255,188.7468 -10.27361,-17.00005 -10.273618,-17.00005 19.859278,-0.39718 19.85929,-0.39719 -9.58567,17.39723 z" transform="matrix(-0.08412688,0.18206333,-0.16311959,-0.07537345,174.16263,69.934554)" style="fill:#fff;fill-opacity:1;fill-rule:evenodd;stroke:navy;stroke-width:5.26760817;stroke-linecap:butt;stroke-linejoin:miter;stroke-miterlimit:4;stroke-opacity:1;stroke-dasharray:none"/><path id="path3066-22-8" d="m 119.70255,188.7468 -10.27361,-17.00005 -10.273618,-17.00005 19.859278,-0.39718 19.85929,-0.39719 -9.58567,17.39723 z" transform="matrix(-0.03040169,0.19827979,-0.18420645,-0.03228794,156.78976,81.405006)" style="fill:#fff;fill-opacity:1;fill-rule:evenodd;stroke:navy;stroke-width:5.26760817;stroke-linecap:butt;stroke-linejoin:miter;stroke-miterlimit:4;stroke-opacity:1;stroke-dasharray:none"/><path id="path3066-22-5" d="m 119.70255,188.7468 -10.27361,-17.00005 -10.273618,-17.00005 19.859278,-0.39718 19.85929,-0.39719 -9.58567,17.39723 z" transform="matrix(0.17959718,0.08927061,-0.07998197,0.16091004,60.692341,57.090081)" style="fill:#fff;fill-opacity:1;fill-rule:evenodd;stroke:navy;stroke-width:5.26760817;stroke-linecap:butt;stroke-linejoin:miter;stroke-miterlimit:4;stroke-opacity:1;stroke-dasharray:none"/></svg>