<svg xmlns="http://www.w3.org/2000/svg" xmlns:xlink="http://www.w3.org/1999/xlink" id="svg2" width="371" height="158" version="1.1"><defs id="defs4"><filter id="shadow" width="200%" height="200%" x="0" y="0"><feOffset id="feOffset7" dx="3" dy="3" in="SourceGraphic" result="offOut"/><feColorMatrix id="feColorMatrix9" in="offOut" result="matrixOut" type="matrix" values="0.2 0 0 0 0 0 0.2 0 0 0 0 0 0.2 0 0 0 0 0 1 0"/><feGaussianBlur id="feGaussianBlur11" in="matrixOut" result="blurOut" stdDeviation="2"/><feBlend id="feBlend13" in="SourceGraphic" in2="blurOut" mode="normal"/></filter></defs><rect style="fill:#f0f8ff;stroke:gray;stroke-width:1" id="rect15" width="72" height="24" x="6" y="12" filter="url(#shadow)" rx="2" ry="2"/><text style="font-size:12;text-anchor:left;font-family:sans-serif" id="text17" x="10" y="28" fill="#000"><a id="a19" xlink:href="#diagnostics">Diagnostics</a></text><rect style="fill:#f0f8ff;stroke:gray;stroke-width:1" id="rect21" width="47" height="24" x="97" y="9" filter="url(#shadow)" rx="2" ry="2"/><text style="font-size:12;text-anchor:left;font-family:sans-serif" id="text23" x="101" y="25" fill="#000"><a id="a25" xlink:href="#clinical">Clinical</a></text><rect style="fill:#f0f8ff;stroke:gray;stroke-width:1" id="rect27" width="76" height="24" x="156" y="9" filter="url(#shadow)" rx="2" ry="2"/><text style="font-size:12;text-anchor:left;font-family:sans-serif" id="text29" x="160" y="25" fill="#000"><a id="a31" xlink:href="#foundation">Foundation</a></text><rect style="fill:#f0f8ff;stroke:gray;stroke-width:1" id="rect33" width="93" height="24" x="244" y="12" filter="url(#shadow)" rx="2" ry="2"/><text style="font-size:12;text-anchor:left;font-family:sans-serif" id="text35" x="248" y="28" fill="#000"><a id="a37" xlink:href="#administrative">Administrative</a></text><rect style="fill:#f0f8ff;stroke:gray;stroke-width:1" id="rect39" width="75" height="24" x="35" y="56" filter="url(#shadow)" rx="2" ry="2"/><text style="font-size:12;text-anchor:left;font-family:sans-serif" id="text41" x="39" y="72" fill="#000"><a id="a43" xlink:href="#medications">Medications</a></text><rect style="fill:#f0f8ff;stroke:gray;stroke-width:1" id="rect45" width="75" height="24" x="128" y="56" filter="url(#shadow)" rx="2" ry="2"/><text style="font-size:12;font-weight:700;text-anchor:left;font-family:sans-serif" id="text47" x="132" y="72" fill="#000">Resources</text><rect style="fill:#f0f8ff;stroke:gray;stroke-width:1" id="rect49" width="140" height="24" x="215" y="56" filter="url(#shadow)" rx="2" ry="2"/><text style="font-size:12;text-anchor:left;font-family:sans-serif" id="text51" x="219" y="72" fill="#000"><a id="a53" xlink:href="#devicecommunications">DeviceCommunications</a></text><rect style="fill:#f0f8ff;stroke:gray;stroke-width:1" id="rect55" width="61" height="24" x="55" y="102" filter="url(#shadow)" rx="2" ry="2"/><text style="font-size:12;text-anchor:left;font-family:sans-serif" id="text57" x="59" y="118" fill="#000"><a id="a59" xlink:href="#financial">Financial</a></text><rect style="fill:#f0f8ff;stroke:gray;stroke-width:1" id="rect61" width="61" height="24" x="131" y="102" filter="url(#shadow)" rx="2" ry="2"/><text style="font-size:12;text-anchor:left;font-family:sans-serif" id="text63" x="135" y="118" fill="#000"><a id="a65" xlink:href="#technical">Technical</a></text><rect style="fill:#f0f8ff;stroke:gray;stroke-width:1" id="rect67" width="87" height="24" x="209" y="102" filter="url(#shadow)" rx="2" ry="2"/><text style="font-size:12;text-anchor:left;font-family:sans-serif" id="text69" x="213" y="118" fill="#000"><a id="a71" xlink:href="#conformance">Conformance</a></text><line style="stroke:navy;stroke-width:1;stroke-dasharray:9,5" id="line73" x1="78.822" x2="128.058" y1="36.465" y2="56.058"/><line style="stroke:navy;stroke-width:1;stroke-dasharray:9,5" id="line73-1" x1="120.706" x2="150.574" y1="32.567" y2="56.411"/><line style="stroke:navy;stroke-width:1;stroke-dasharray:9,5" id="line73-7" x1="189.978" x2="172.34" y1="32.934" y2="56.273"/><line style="stroke:navy;stroke-width:1;stroke-dasharray:9,5" id="line73-4" x1="243.93" x2="198.19" y1="35.852" y2="58.171"/><line style="stroke:navy;stroke-width:1;stroke-dasharray:9,5" id="line73-0" x1="203.359" x2="212.618" y1="67.726" y2="68.032"/><line style="stroke:navy;stroke-width:1;stroke-dasharray:9,5" id="line73-9" x1="184.627" x2="209.107" y1="81.124" y2="102.102"/><line style="stroke:navy;stroke-width:1;stroke-dasharray:9,5" id="line73-48" x1="164.064" x2="163.169" y1="80.403" y2="100.53"/><line style="stroke:navy;stroke-width:1;stroke-dasharray:9,5" id="line73-8" x1="129.925" x2="113.608" y1="80.833" y2="101.476"/><line style="stroke:navy;stroke-width:1;stroke-dasharray:9,5" id="line73-2" x1="109.347" x2="126.389" y1="68.218" y2="68.458"/></svg>