<svg xmlns="http://www.w3.org/2000/svg" xmlns:xlink="http://www.w3.org/1999/xlink" width="360" height="90" version="1.1"><defs><filter id="shadow" width="200%" height="200%" x="0" y="0"><feOffset dx="3" dy="3" in="SourceGraphic" result="offOut"/><feColorMatrix in="offOut" result="matrixOut" type="matrix" values="0.2 0 0 0 0 0 0.2 0 0 0 0 0 0.2 0 0 0 0 0 1 0"/><feGaussianBlur in="matrixOut" result="blurOut" stdDeviation="2"/><feBlend in="SourceGraphic" in2="blurOut" mode="normal"/></filter></defs><rect width="160" height="76" x="0" y="0" filter="url(#shadow)" rx="4" ry="4" style="fill:#f0f8ff;stroke:#000;stroke-width:1"/><line x1="0" x2="160" y1="20" y2="20" style="stroke:#696969;stroke-width:1"/><text x="50" y="16" fill="#000" style="font-size:14;text-anchor:middle;font-family:sans-serif">Name</text><text x="4" y="36" fill="#000" style="font-size:10;text-anchor:left;font-family:sans-serif">attrA : string 0..1</text><text x="4" y="50" fill="#000" style="font-size:10;text-anchor:left;font-family:sans-serif">nameA : type 1..1</text><text x="4" y="64" fill="#000" style="font-size:10;text-anchor:left;font-family:sans-serif">nameB[x] : type1 | type2 0..1</text><rect width="100" height="60" x="240" y="10" filter="url(#shadow)" rx="4" ry="4" style="fill:#f0f8ff;stroke:#000;stroke-width:1"/><line x1="240" x2="340" y1="30" y2="30" style="stroke:#696969;stroke-width:1"/><text x="270" y="26" fill="#000" style="font-size:14;text-anchor:middle;font-family:sans-serif">NameC</text><text x="244" y="46" fill="#000" style="font-size:10;text-anchor:left;font-family:sans-serif">nameD : type 1..*</text><line x1="160" x2="240" y1="40" y2="40" style="stroke:navy;stroke-width:1"/><polygon points="160 40 166 44 172 40 166 36 160 40" style="fill:navy;stroke:navy;stroke-width:1"/><rect width="50" height="18" x="175" y="30" style="fill:#fff;stroke:#000;stroke-width:0"/><text x="200" y="42" fill="#000" style="font-size:10;text-anchor:middle;font-family:sans-serif;opacity:1">nameC</text><text x="230" y="36" fill="#000" style="font-size:10;text-anchor:middle;font-family:sans-serif;opacity:1">0..1</text></svg>